<svg width="70" height="70" viewBox="0 0 70 70" fill="none" xmlns="http://www.w3.org/2000/svg">
<g clip-path="url(#clip0_155_966)">
<path fill-rule="evenodd" clip-rule="evenodd" d="M39.734 35.5668C38.2692 37.0316 35.8942 37.0316 34.4332 35.5668C32.9684 34.1059 32.9684 31.7309 34.4332 30.266L57.1952 7.5H42.9182C40.8479 7.5 39.1682 5.8203 39.1682 3.75C39.1682 1.6797 40.8479 0 42.9182 0H66.2502C68.3205 0 70.0002 1.6797 70.0002 3.75V27.082C70.0002 29.1523 68.3205 30.832 66.2502 30.832C64.1799 30.832 62.5002 29.1523 62.5002 27.082V12.805L39.734 35.5668ZM7.5 16.2508C7.5 11.4188 11.418 7.5008 16.25 7.5008H24.582C26.6523 7.5008 28.332 5.8211 28.332 3.7508C28.332 1.6805 26.6523 0.000800133 24.582 0.000800133H16.25C7.2734 0.000800133 0 7.2781 0 16.2508V53.7508C0 62.7235 7.2734 70.0008 16.25 70.0008H53.75C62.7227 70.0008 70 62.7235 70 53.7508V45.4188C70 43.3485 68.3203 41.6688 66.25 41.6688C64.1797 41.6688 62.5 43.3485 62.5 45.4188V53.7508C62.5 58.5828 58.582 62.5008 53.75 62.5008H16.25C11.418 62.5008 7.5 58.5828 7.5 53.7508V16.2508Z" fill="black"/>
</g>
<defs>
<clipPath id="clip0_155_966">
<rect width="70" height="70" fill="white"/>
</clipPath>
</defs>
</svg>
